<?xml version="1.0" encoding="utf-8"?>
<!-- Generator: Adobe Illustrator 26.0.2, SVG Export Plug-In . SVG Version: 6.00 Build 0)  -->
<svg version="1.1" id="Layer_1" xmlns="http://www.w3.org/2000/svg" xmlns:xlink="http://www.w3.org/1999/xlink" x="0px" y="0px"
	 viewBox="0 0 1728 864" style="enable-background:new 0 0 1728 864;" xml:space="preserve">
<style type="text/css">
	.Drop_x0020_Shadow{fill:none;}
	.Round_x0020_Corners_x0020_2_x0020_pt{fill:#FFFFFF;stroke:#000000;stroke-miterlimit:10;}
	.Live_x0020_Reflect_x0020_X{fill:none;}
	.Bevel_x0020_Soft{fill:url(#SVGID_1_);}
	.Dusk{fill:#FFFFFF;}
	.Foliage_GS{fill:#FFDD00;}
	.Pompadour_GS{fill-rule:evenodd;clip-rule:evenodd;fill:#44ADE2;}
	.st0{fill:none;stroke:#000000;stroke-width:1.000000e-03;stroke-miterlimit:10;}
	.st1{font-family:'Arial-Black';}
	.st2{font-size:21px;}
	.st3{font-family:'Krungthep';}
	.st4{font-size:24.3218px;}
</style>
<linearGradient id="SVGID_1_" gradientUnits="userSpaceOnUse" x1="0" y1="0" x2="0.7071" y2="0.7071">
	<stop  offset="0" style="stop-color:#DEDFE3"/>
	<stop  offset="0.1738" style="stop-color:#D8D9DD"/>
	<stop  offset="0.352" style="stop-color:#C9CACD"/>
	<stop  offset="0.5323" style="stop-color:#B4B5B8"/>
	<stop  offset="0.7139" style="stop-color:#989A9C"/>
	<stop  offset="0.8949" style="stop-color:#797C7E"/>
	<stop  offset="1" style="stop-color:#656B6C"/>
</linearGradient>
<rect x="47" y="46.9" class="st0" width="1102.7" height="657.6"/>
<text transform="matrix(1 0 0 1 80.6445 97.9328)" class="st1 st2">Back Board</text>
<rect x="1226.5" y="47.2" class="st0" width="242.9" height="657.6"/>
<rect x="1295.8" y="154.2" transform="matrix(-1.836970e-16 1 -1 -1.836970e-16 1595.2563 -1166.3667)" class="st0" width="170.1" height="120.5"/>
<circle class="st0" cx="1435.4" cy="308" r="2.8"/>
<circle class="st0" cx="1435.4" cy="120.9" r="2.8"/>
<circle class="st0" cx="1326.2" cy="120.9" r="2.8"/>
<circle class="st0" cx="1326.2" cy="308" r="2.8"/>
<circle class="st0" cx="1412.7" cy="393" r="22.7"/>
<circle class="st0" cx="1299.3" cy="393" r="22.7"/>
<rect x="1275.9" y="467.4" transform="matrix(-1.836970e-16 1 -1 -1.836970e-16 1911.3193 -783.6895)" class="st0" width="143.1" height="192.8"/>
<circle class="st0" cx="1449.6" cy="636.8" r="2.8"/>
<circle class="st0" cx="1245.5" cy="636.8" r="2.8"/>
<circle class="st0" cx="1245.5" cy="489.4" r="2.8"/>
<circle class="st0" cx="1449.6" cy="489.4" r="2.8"/>
<text transform="matrix(5.995749e-17 0.9792 -1 6.123234e-17 1270.9468 143.3184)" class="st3 st4">DIP COATER</text>
</svg>
